# xmcd
#
# Track frame offsets:
# 150
# 18262
# 42752
# 58060
# 73045
# 97330
# 126722
# 138307
# 156240
# 178852
# 202170
# 226592
#
# Disc length: 3350 seconds
#
#
# Revision: 0
# Processed by: cddbd v1.4PL0 Copyright (c) Steve Scherf et al.
# Submitted via: FreeRIP 2.00 
#
DISCID=b20d140c
DTITLE=Roach Thompson - Roach Thompson
DYEAR=1994
DGENRE=Blues
TTITLE0=Baby Don't Love Me No More
TTITLE1=Cat Woman
TTITLE2=Hurricane Took My Home
TTITLE3=Shit House Rep
TTITLE4=When I Found You
TTITLE5=Witch Bitch
TTITLE6=Mama Talk To Your Daughter
TTITLE7=Tried To Win Your Love
TTITLE8=Forever Man
TTITLE9=Classy Chassie
TTITLE10=I Can't Help Myself
TTITLE11=Kill That Roach
EXTD=
EXTT0=
EXTT1=
EXTT2=
EXTT3=
EXTT4=
EXTT5=
EXTT6=
EXTT7=
EXTT8=
EXTT9=
EXTT10=
EXTT11=
PLAYORDER=
